<svg id="Layer_1" data-name="Layer 1" xmlns="http://www.w3.org/2000/svg" viewBox="0 0 1280 1024"><defs><style>.cls-1{stroke:#000;stroke-linecap:round;stroke-linejoin:round;stroke-width:10px;}</style></defs><rect x="395" y="144" width="490" height="72" rx="19.14"/><path class="cls-1" d="M461.7,595.92,732.22,306.81v-1.58H484.85V266.65H814v28l-269.08,288v1.59h272.7v38.58H461.7Z"/><path d="M869.19,724.2a640.25,640.25,0,0,1-458.38,0C402,720.84,395,710.55,395,701.49v-39.2c0-9.06,7-13.45,15.81-10.09a640.25,640.25,0,0,0,458.38,0c8.77-3.36,15.81,1,15.81,10.09v39.2C885,710.55,878,720.84,869.19,724.2Z"/></svg>